<?xml version="1.0" encoding="UTF-8" standalone="no"?>
<svg width="26px" height="31px" viewBox="0 0 26 31" version="1.1" xmlns="http://www.w3.org/2000/svg" xmlns:xlink="http://www.w3.org/1999/xlink">
    <!-- Generator: sketchtool 40.1 (33804) - http://www.bohemiancoding.com/sketch -->
    <title>0279F6FA-CCCB-42EF-B2CF-31C3372FB6EA</title>
    <desc>Created with sketchtool.</desc>
    <defs>
        <rect id="path-1" x="152" y="154" width="729" height="962" rx="6"></rect>
        <filter x="-50%" y="-50%" width="200%" height="200%" filterUnits="objectBoundingBox" id="filter-2">
            <feOffset dx="0" dy="4" in="SourceAlpha" result="shadowOffsetOuter1"></feOffset>
            <feGaussianBlur stdDeviation="25" in="shadowOffsetOuter1" result="shadowBlurOuter1"></feGaussianBlur>
            <feColorMatrix values="0 0 0 0 0   0 0 0 0 0   0 0 0 0 0  0 0 0 0.1 0" type="matrix" in="shadowBlurOuter1"></feColorMatrix>
        </filter>
    </defs>
    <g id="Page-1" stroke="none" stroke-width="1" fill="none" fill-rule="evenodd">
        <g id="Home_final" transform="translate(-408.000000, -799.000000)">
            <g id="Rectangle-3" transform="translate(516.500000, 635.000000) rotate(-180.000000) translate(-516.500000, -635.000000) ">
                <use fill="black" fill-opacity="1" filter="url(#filter-2)" xlink:href="#path-1"></use>
                <use fill="#FFFFFF" fill-rule="evenodd" xlink:href="#path-1"></use>
            </g>
            <path d="M417.5,815.9375 C413.392375,815.9375 410.0625,812.606562 410.0625,808.5 C410.0625,804.393437 413.392375,801.0625 417.5,801.0625 C421.607625,801.0625 424.9375,804.393437 424.9375,808.5 C424.9375,812.606562 421.607625,815.9375 417.5,815.9375 L417.5,815.9375 L417.5,815.9375 Z M417.5,800 C412.805344,800 409,803.80375 409,808.5 C409,813.19625 412.805344,817 417.5,817 C422.194656,817 426,813.19625 426,808.5 C426,803.80375 422.194656,800 417.5,800 L417.5,800 L417.5,800 Z M420.6875,807.96875 L418.03125,807.96875 L418.03125,805.3125 C418.03125,805.020312 417.793781,804.78125 417.5,804.78125 C417.206219,804.78125 416.96875,805.020312 416.96875,805.3125 L416.96875,807.96875 L414.3125,807.96875 C414.018719,807.96875 413.78125,808.207812 413.78125,808.5 C413.78125,808.792187 414.018719,809.03125 414.3125,809.03125 L416.96875,809.03125 L416.96875,811.6875 C416.96875,811.979687 417.206219,812.21875 417.5,812.21875 C417.793781,812.21875 418.03125,811.979687 418.03125,811.6875 L418.03125,809.03125 L420.6875,809.03125 C420.981281,809.03125 421.21875,808.792187 421.21875,808.5 C421.21875,808.207812 420.981281,807.96875 420.6875,807.96875 L420.6875,807.96875 L420.6875,807.96875 Z" id="plus-circle" fill="#4990E2"></path>
        </g>
    </g>
</svg>